# AST/ASF file generated using VICON BodyLanguage
# -----------------------------------------------
:version 1.10
:name VICON
:units
  mass 1.0
  length 0.45
  angle deg
:documentation
   .ast/.asf automatically generated from VICON data using
   VICON BodyBuilder and BodyLanguage model FoxedUp or BRILLIANT.MOD
:root
   order TX TY TZ RX RY RZ
   axis XYZ
   position 0 0 0  
   orientation 0 0 0 
:bonedata
  begin
     id 1 
     name lhipjoint
     direction 0.61886 -0.69539 0.365302 
     length 2.20474 
     axis 0 0 0  XYZ
  end
  begin
     id 2 
     name lfemur
     direction 0.34202 -0.939693 0  
     length 6.65149  
     axis 0 0 20  XYZ
    dof rx ry rz
    limits (-160.0 20.0)
           (-70.0 70.0)
           (-60.0 70.0)
  end
  begin
     id 3 
     name ltibia
     direction 0.34202 -0.939693 0   
     length 6.35814   
     axis 0 0 20   XYZ
    dof rx
    limits (-10.0 170.0)
  end
  begin
     id 4 
     name lfoot
     direction 0.101224 -0.278109 0.955201   
     length 2.18766   
     axis -90 7.62852e-016 20   XYZ
    dof rx rz
    limits (-45.0 90.0)
           (-70.0 20.0)
  end
  begin
     id 5 
     name ltoes
     direction 1.53524e-011 -4.21877e-011 1   
     length 1.09206   
     axis -90 7.62852e-016 20   XYZ
    dof rx
    limits (-90.0 20.0)
  end
  begin
     id 6 
     name rhipjoint
     direction -0.600207 -0.708087 0.371972   
     length 2.1652  
     axis 0 0 0  XYZ 
  end
  begin
     id 7 
     name rfemur
     direction -0.34202 -0.939693 0   
     length 6.54691   
     axis 0 0 -20   XYZ
    dof rx ry rz
    limits (-160.0 20.0)
           (-70.0 70.0)
           (-70.0 60.0)
  end
  begin
     id 8 
     name rtibia
     direction -0.34202 -0.939693 0   
     length 6.37474   
     axis 0 0 -20   XYZ
    dof rx
    limits (-10.0 170.0)
 end
 begin
     id 9 
     name rfoot
     direction -0.111266 -0.3057 0.945604   
     length 2.00903  
     axis -90 -7.62852e-016 -20   XYZ
    dof rx rz
    limits (-45.0 90.0)
           (-20.0 70.0)
  end
  begin
     id 10 
     name rtoes
     direction -1.5362e-011 -4.21913e-011 1   
     length 1.00221   
     axis -90 -7.62852e-016 -20   XYZ
    dof rx
    limits (-90.0 20.0)
  end
  begin
     id 11 
     name lowerback
     direction -0.0224561 0.999731 -0.00577314   
     length 2.10409   
     axis 0 0 0   XYZ
    dof rx ry rz
    limits (-20.0 45.0)
           (-30.0 30.0)
           (-30.0 30.0)
  end
  begin
     id 12 
     name upperback
     direction 0.0213126 0.999185 -0.0342817   
     length 2.09783   
     axis 0 0 0   XYZ
    dof rx ry rz
    limits (-20.0 45.0)
           (-30.0 30.0)
           (-30.0 30.0)
  end
  begin
     id 13 
     name thorax
     direction 0.0312356 0.999036 -0.0308451   
     length 2.09788   
     axis 0 0 0   XYZ
    dof rx ry rz
    limits (-20.0 45.0)
           (-30.0 30.0)
           (-30.0 30.0)
  end
  begin
     id 14 
     name lowerneck
     direction -0.0114419 0.996481 0.0830329   
     length 1.38575   
     axis 0 0 0   XYZ
    dof rx ry rz
    limits (-20.0 45.0)
           (-30.0 30.0)
           (-30.0 30.0)
  end
  begin
     id 15 
     name upperneck
     direction -0.0075675 0.996187 -0.0869092   
     length 1.39401   
     axis 0 0 0   XYZ
    dof rx ry rz
    limits (-20.0 45.0)
           (-30.0 30.0)
           (-30.0 30.0)
  end
  begin
     id 16
     name head
     direction -0.00222073 0.999264 -0.0382974  
     length 1.3964  
     axis 0 0 0   XYZ
    dof rx ry rz
    limits (-20.0 45.0)
           (-30.0 30.0)
           (-30.0 30.0)
  end
  begin
     id 17 
     name lclavicle
     direction 0.965962 0.222138 0.132556  
     length 2.81514  
     axis 0 0 0   XYZ
    dof ry rz
    limits (-20.0 10.0)
           (0.0 20.0)
  end
  begin
     id 18 
     name lhumerus
     direction 1 -4.48972e-011 7.03471e-018   
     length 4.47366   
     axis 180 -30 -90   XYZ
    dof rx ry rz
    limits (-60.0 90.0)
           (-90.0 90.0)
           (-90.0 90.0)
  end
  begin
     id 19
     name lradius
     direction 1 -4.48951e-011 -6.22192e-028   
     length 3.19948   
     axis 180 -30 -90   XYZ
    dof rx
    limits (-10.0 170.0)
  end
  begin
     id 20
     name lwrist
     direction 1 -4.48967e-011 -1.24264e-027   
     length 1.59974   
     axis 1.40095e-015 90 90   XYZ
    dof ry
    limits (-180.0 0.0)
 end
  begin
     id 21 
     name lhand
     direction 1 -4.4897e-011 -2.48528e-027   
     length 0.492667   
     axis 1.58582e-015 90 90   XYZ
    dof rx rz
    limits (-90.0 90.0)
           (-45.0 45.0)
  end
  begin
     id 22 
     name lfingers
     direction 1 -4.48996e-011 -4.97056e-027   
     length 0.397201   
     axis 3.17164e-015 90 90   XYZ
    dof rx
    limits (0.0 90.0)
  end
  begin
     id 23
     name lthumb
     direction 0.707107 -6.34981e-011 0.707107   
     length 0.570303   
     axis -90 45 2.85299e-015   XYZ
    dof rx rz
    limits (-45.0 45.0)
           (-45.0 45.0)
  end
  begin
     id 24 
     name rclavicle
     direction -0.961164 0.229034 0.153972   
     length 3.09348  
     axis 0 0 0   XYZ 
    dof ry rz
    limits (-10.0 20.0)
           (-20.0 0.0)
  end
  begin
     id 25 
     name rhumerus
     direction -1 -4.48971e-011 -9.06263e-028  
     length 4.3269   
     axis 180 30 90   XYZ
    dof rx ry rz
    limits (-90.0 60.0)
           (-90.0 90.0)
           (-90.0 90.0)
  end
  begin
     id 26 
     name rradius
     direction -1 -4.48953e-011 1.44659e-027   
     length 3.1896   
     axis 180 30 90   XYZ
    dof rx
    limits (-10.0 170.0)
  end
  begin
     id 27 
     name rwrist
     direction -1 -4.48988e-011 -1.24264e-027   
     length 1.5948   
     axis 1.40095e-015 -90 -90   XYZ
    dof ry
    limits (-180.0 0.0)
  end
  begin
     id 28
     name rhand
     direction -1 -4.49033e-011 -2.48528e-027   
     length 0.464496   
     axis 1.58582e-015 -90 -90   XYZ
    dof rx rz
    limits (-90.0 90.0)
           (-45.0 45.0)
  end
  begin
     id 29
     name rfingers
     direction -1 -4.48905e-011 -4.97056e-027   
     length 0.374489   
     axis 3.17164e-015 -90 -90   XYZ
    dof rx
    limits (0.0 90.0)
  end
  begin
     id 30
     name rthumb
     direction -0.707107 -6.34909e-011 0.707107   
     length 0.537693   
     axis -90 -45 -2.85299e-015   XYZ
    dof rx rz
    limits (-45.0 45.0)
           (-45.0 45.0)
  end
:hierarchy
  begin
    root lhipjoint rhipjoint lowerback
    lhipjoint lfemur
    lfemur ltibia
    ltibia lfoot
    lfoot ltoes
    rhipjoint rfemur
    rfemur rtibia
    rtibia rfoot
    rfoot rtoes
    lowerback upperback
    upperback thorax
    thorax lowerneck lclavicle rclavicle
    lowerneck upperneck
    upperneck head
    lclavicle lhumerus
    lhumerus lradius
    lradius lwrist
    lwrist lhand lthumb
    lhand lfingers
    rclavicle rhumerus
    rhumerus rradius
    rradius rwrist
    rwrist rhand rthumb
    rhand rfingers
  end

#!OML:ASF G:\acrobat\cartwheel_test 2\Patient 1\Session 2\acrobat4.ASF
:FULLY-SPECIFIED
:DEGREES
1558
root 6.82116 15.3504 -1.61412 153.431 173.907 -3.44412
lowerback 11.116 -0.560952 -2.3504
upperback -6.63163 -0.806775 2.91391
thorax -13.525 0.00316874 4.75027
lowerneck -18.8946 0.0621841 0.165633
upperneck -11.8608 0.762689 -5.24584
head -0.661867 0.943411 -1.67553
rclavicle 1.92821e-014 -1.0138e-014
rhumerus 59.9269 -20.6702 -54.4272
rradius 56.5875
rwrist 8.65845
rhand -43.9038 273.603
rfingers 7.12502
rthumb -16.7286 -244.304
lclavicle 1.92821e-014 -1.0138e-014
lhumerus 58.2148 18.9009 57.2232
lradius 62.636
lwrist 6.70789
lhand -66.0597 -206.421
lfingers 7.12502
lthumb -37.8994 -232.247
rfemur -46.4535 1.52908 15.8999
rtibia 53.6894
rfoot -2.38001 1.78312
rtoes -14.2458
lfemur -381.479 1.76753 -386.891
ltibia 34.8712
lfoot 168.657 -185.478
ltoes -28.7143
1559
root 6.80664 15.3383 -1.73504 154.418 173.982 -3.19659
lowerback 10.7062 -0.526909 -2.40457
upperback -6.71393 -0.773321 2.85289
thorax -13.3701 0.014791 4.6945
lowerneck -18.8766 0.0207631 0.0994678
upperneck -12.1394 0.719388 -5.12179
head -0.75977 0.942693 -1.62777
rclavicle 5.1684e-015 1.66979e-014
rhumerus 59.5229 -20.8507 -54.6591
rradius 57.8586
rwrist 8.45601
rhand -43.95 273.336
rfingers 7.12502
rthumb -16.7731 -244.041
lclavicle 5.1684e-015 1.66979e-014
lhumerus 57.7221 19.0633 57.0301
lradius 63.8023
lwrist 6.75624
lhand -65.4443 -208.181
lfingers 7.12502
lthumb -37.3178 -234.163
rfemur -44.3839 2.30141 16.4188
rtibia 52.964
rfoot -1.75063 2.14547
rtoes -12.3691
lfemur -382.977 2.49822 -387.001
ltibia 36.3059
lfoot 168.609 -187.209
ltoes -27.8504
1560
root 6.79222 15.3254 -1.85521 155.411 174.077 -2.962
lowerback 10.2978 -0.458953 -2.454
upperback -6.81223 -0.69415 2.78464
thorax -13.2395 0.0476702 4.6198
lowerneck -19.0441 0.132937 0.0785557
upperneck -11.5924 0.856735 -5.17629
head -0.548734 0.96692 -1.63036
rclavicle 9.93923e-015 2.06736e-014
rhumerus 59.037 -21.1065 -54.7715
rradius 59.0645
rwrist 8.26534
rhand -43.9877 272.818
rfingers 7.12502
rthumb -16.8093 -243.525
lclavicle 9.93923e-015 2.06736e-014
lhumerus 57.1335 19.1958 56.5089
lradius 64.8927
lwrist 7.09609
lhand -65.0427 -208.341
lfingers 7.12502
lthumb -36.938 -234.421
rfemur -42.6021 3.08904 16.9164
rtibia 52.2629
rfoot -1.63013 2.04399
rtoes -12.5863
lfemur -384.4 3.14426 -387.096
ltibia 37.6118
lfoot 169.002 -188.829
ltoes -26.0759
1561
root 6.77616 15.311 -1.97309 156.392 174.235 -2.78028
lowerback 9.79813 -0.368004 -2.41868
upperback -6.9963 -0.569717 2.71542
thorax -13.1569 0.0953525 4.4882
lowerneck -18.0909 0.13813 0.105829
upperneck -11.7625 0.779743 -5.21143
head -0.75133 0.916459 -1.65127
rclavicle -1.31198e-014 -1.05356e-014
rhumerus 58.298 -21.286 -54.7369
rradius 60.1891
rwrist 8.07706
rhand -44.046 272.216
rfingers 7.12502
rthumb -16.8655 -242.928
lclavicle -1.31198e-014 -1.05356e-014
lhumerus 56.1946 19.1817 55.6967
lradius 66.0945
lwrist 7.55676
lhand -64.9424 -207.528
lfingers 7.12502
lthumb -36.8432 -233.633
rfemur -41.0714 3.86409 17.4579
rtibia 51.5723
rfoot -1.62492 1.60151
rtoes -13.5414
lfemur -385.764 3.32203 -387.06
ltibia 38.8022
lfoot 169.816 -189.856
ltoes -23.2662
1562
root 6.75896 15.2992 -2.09037 157.213 174.466 -2.59343
lowerback 9.36839 -0.2986 -2.31203
upperback -6.84878 -0.462157 2.65846
thorax -12.7288 0.119393 4.32469
lowerneck -18.3266 0.0906868 -0.00247939
upperneck -11.406 0.73691 -5.08768
head -0.600804 0.872169 -1.59111
rclavicle -8.54774e-015 -7.15625e-015
rhumerus 58.2427 -21.6326 -55.059
rradius 61.1911
rwrist 7.94932
rhand -43.992 271.683
rfingers 7.12502
rthumb -16.8135 -242.391
lclavicle -8.54774e-015 -7.15625e-015
lhumerus 55.6566 19.5828 54.7446
lradius 67.1863
lwrist 7.90055
lhand -65.0078 -202.456
lfingers 7.12502
lthumb -36.905 -228.545
rfemur -39.5843 4.67119 17.9797
rtibia 50.8854
rfoot -1.16949 0.303335
rtoes -13.3789
lfemur -386.878 3.18154 -386.927
ltibia 39.8488
lfoot 170.451 -189.976
ltoes -20.2892
1563
root 6.74272 15.2903 -2.21165 157.879 174.673 -2.36965
lowerback 9.21968 -0.243891 -2.26137
upperback -6.82937 -0.384025 2.61641
thorax -12.6215 0.146143 4.22925
lowerneck -17.9783 0.0518926 -0.195258
upperneck -10.9612 0.679844 -4.96127
head -0.511375 0.807158 -1.51566
rclavicle 8.54774e-015 -3.97569e-016
rhumerus 57.9538 -21.7533 -55.1411
rradius 62.124
rwrist 7.82463
rhand -43.957 271.245
rfingers 7.12502
rthumb -16.7798 -241.95
lclavicle 8.54774e-015 -3.97569e-016
lhumerus 54.8648 19.8155 53.6536
lradius 68.0532
lwrist 8.13097
lhand -64.9484 -195.541
lfingers 7.12502
lthumb -36.8488 -221.645
rfemur -38.1334 5.50344 18.3958
rtibia 50.1977
rfoot -1.03625 -1.53499
rtoes -13.4245
lfemur -387.728 2.86925 -386.782
ltibia 40.7327
lfoot 172.005 -190.205
ltoes -12.8998
1564
root 6.7265 15.2766 -2.33321 158.487 174.845 -2.21396
lowerback 9.01178 -0.126219 -2.13458
upperback -6.59504 -0.219197 2.50232
thorax -12.2368 0.195399 3.98678
lowerneck -18.0564 -0.0426892 -0.0431565
upperneck -10.5288 0.512629 -5.01094
head -0.360031 0.684636 -1.56462
rclavicle -5.76476e-015 3.37934e-015
rhumerus 57.8329 -22.3138 -55.3316
rradius 63.0919
rwrist 7.80878
rhand -43.9721 270.91
rfingers 7.12502
rthumb -16.7943 -241.616
lclavicle -5.76476e-015 3.37934e-015
lhumerus 54.6713 19.9867 53.1051
lradius 68.9795
lwrist 8.36099
lhand -64.6218 -196.792
lfingers 7.12502
lthumb -36.5398 -222.974
rfemur -36.86 6.31663 18.7851
rtibia 49.5195
rfoot -1.10063 -3.85819
rtoes -13.5767
lfemur -388.378 2.61115 -386.564
ltibia 41.4405
lfoot 172.023 -188.205
ltoes -13.4714
1565
root 6.71142 15.2582 -2.45144 159.084 175.037 -2.10046
lowerback 8.73243 -0.0486445 -1.94991
upperback -6.38632 -0.0968601 2.41459
thorax -11.8349 0.222565 3.75076
lowerneck -17.7536 -0.0287356 -0.175291
upperneck -10.1131 0.516944 -4.87077
head -0.272128 0.65203 -1.4932
rclavicle -2.5842e-015 -3.97569e-016
rhumerus 57.8449 -22.6634 -55.8377
rradius 63.9964
rwrist 7.9634
rhand -43.9403 270.99
rfingers 7.12502
rthumb -16.7638 -241.693
lclavicle -2.5842e-015 -3.97569e-016
lhumerus 54.2201 20.268 52.5253
lradius 70.1521
lwrist 8.82555
lhand -64.0853 -203.646
lfingers 7.12502
lthumb -36.0318 -229.955
rfemur -35.8499 7.24607 19.115
rtibia 48.8755
rfoot -0.852383 -5.46244
rtoes -13.4773
lfemur -388.889 2.70488 -386.302
ltibia 41.9944
lfoot 171.625 -186.916
ltoes -14.9103
1566
root 6.69892 15.2401 -2.56631 159.761 175.171 -1.91702
lowerback 8.37826 -0.0667781 -1.8864
upperback -6.21244 -0.111129 2.39988
thorax -11.4192 0.200232 3.68995
lowerneck -17.8892 0.196904 -0.637687
upperneck -9.0692 0.881091 -4.63774
head 0.0946237 0.773471 -1.316
rclavicle -2.06736e-014 1.98785e-015
rhumerus 58.246 -22.6681 -56.5501
rradius 64.624
rwrist 8.29832
rhand -43.9459 271.336
rfingers 7.12502
rthumb -16.7691 -242.04
lclavicle -2.06736e-014 1.98785e-015
lhumerus 53.5917 20.7984 51.7429
lradius 71.1489
lwrist 9.27498
lhand -63.6831 -206.393
lfingers 7.12502
lthumb -35.6507 -232.795
rfemur -35.1305 8.32872 19.2068
rtibia 48.2967
rfoot -0.510562 -6.03658
rtoes -12.6498
lfemur -389.455 2.93467 -386.128
ltibia 42.4298
lfoot 171.644 -186.229
ltoes -14.2954
1567
root 6.68682 15.2233 -2.67375 160.442 175.278 -1.72345
lowerback 7.99544 -0.0411599 -1.82075
upperback -6.26981 -0.0775885 2.27774
thorax -11.2528 0.201146 3.50835
lowerneck -17.0986 0.401164 -0.445351
upperneck -7.50791 1.03933 -4.88228
head 0.491185 0.732633 -1.41707
rclavicle -1.43125e-014 -1.23246e-014
rhumerus 58.0215 -22.6546 -56.8388
rradius 65.0871
rwrist 8.53673
rhand -43.9916 271.269
rfingers 7.12502
rthumb -16.8131 -241.977
lclavicle -1.43125e-014 -1.23246e-014
lhumerus 52.9944 20.7817 51.0414
lradius 71.8046
lwrist 9.60573
lhand -63.5363 -206.187
lfingers 7.12502
lthumb -35.5115 -232.622
rfemur -34.5557 9.09029 19.2724
rtibia 47.8041
rfoot -0.145948 -5.89233
rtoes -9.89034
lfemur -389.972 2.64238 -385.879
ltibia 42.782
lfoot 171.672 -185.46
ltoes -12.7563
1568
root 6.67394 15.2077 -2.7749 161.026 175.445 -1.49471
lowerback 7.62812 0.0174365 -1.80088
upperback -5.98629 -0.00733561 2.15165
thorax -10.715 0.215462 3.33603
lowerneck -18.1152 0.671393 -0.370211
upperneck -3.96982 1.41975 -4.76336
head 1.86109 0.735286 -1.37953
rclavicle -2.34566e-014 1.03368e-014
rhumerus 58.2801 -22.9678 -57.2627
rradius 65.5259
rwrist 8.75458
rhand -44.0099 270.822
rfingers 7.12502
rthumb -16.8308 -241.531
lclavicle -2.34566e-014 1.03368e-014
lhumerus 53.1376 21.1154 50.9003
lradius 72.3115
lwrist 9.77969
lhand -63.4085 -206.64
lfingers 7.12502
lthumb -35.3903 -233.104
rfemur -34.0302 9.30635 19.468
rtibia 47.4064
rfoot -0.344478 -6.10539
rtoes -11.5187
lfemur -390.337 1.94595 -385.545
ltibia 43.0726
lfoot 170.817 -183.512
ltoes -14.9003
